<svg xmlns="http://www.w3.org/2000/svg" width="1350" height="757" viewBox="0 0 1350 757" font-family="Segoe UI, Helvetica, Arial, sans-serif">
<rect width="1350" height="757" fill="#FFFFFF"/>
<defs><marker id="f" markerWidth="9" markerHeight="9" refX="8" refY="4.5" orient="auto"><path d="M0,0 L9,4.5 L0,9 z" fill="#5A5A5A"/></marker><marker id="fr" markerWidth="9" markerHeight="9" refX="8" refY="4.5" orient="auto"><path d="M0,0 L9,4.5 L0,9 z" fill="#C0504D"/></marker></defs>
<text x="75" y="42" font-size="21" font-weight="600" fill="#1A1A1A">Vaultrum — el sistema entero</text>
<text x="75" y="66" font-size="12.5" fill="#6A6A6A">Cinco capas. El Core es fuente y retorno; la Agencia produce; las torres cuidan aprendizaje, publicación y operación de la IA.</text>
<path d="M 695,162 L 685,225" fill="none" stroke="#5A5A5A" stroke-width="1.5" marker-end="url(#f)"/>
<rect x="633" y="184" width="124" height="16" rx="3" fill="#FFFFFF" opacity="0.94"/>
<text x="695" y="196" font-size="10.5" fill="#5A5A5A" text-anchor="middle">alimenta el arranque</text>
<path d="M 685,287 L 685,321 L 440,321 L 440,350" fill="none" stroke="#5A5A5A" stroke-width="1.5" marker-end="url(#f)"/>
<path d="M 685,287 L 675,350" fill="none" stroke="#5A5A5A" stroke-width="1.5" marker-end="url(#f)"/>
<path d="M 555,381 L 575,381" fill="none" stroke="#5A5A5A" stroke-width="1.5" marker-end="url(#f)"/>
<rect x="511" y="372" width="107" height="16" rx="3" fill="#FFFFFF" opacity="0.94"/>
<text x="565" y="384" font-size="10.5" fill="#5A5A5A" text-anchor="middle">paquete de diseno</text>
<path d="M 775,381 L 825,381" fill="none" stroke="#5A5A5A" stroke-width="1.5" marker-end="url(#f)"/>
<path d="M 825,381 L 517,381 L 517,256 L 575,256" fill="none" stroke="#5A5A5A" stroke-width="1.5" marker-end="url(#f)"/>
<rect x="491" y="310" width="51" height="16" rx="3" fill="#FFFFFF" opacity="0.94"/>
<text x="517" y="322" font-size="10.5" fill="#5A5A5A" text-anchor="middle">QA → VE</text>
<path d="M 685,287 L 685,366 L 725,366 L 725,475" fill="none" stroke="#5A5A5A" stroke-width="1.5" marker-end="url(#f)"/>
<rect x="668" y="357" width="74" height="16" rx="3" fill="#FFFFFF" opacity="0.94"/>
<text x="705" y="369" font-size="10.5" fill="#5A5A5A" text-anchor="middle">aterriza en</text>
<path d="M 1075,256 L 531,256 L 531,131 L 575,131" fill="none" stroke="#5A5A5A" stroke-width="1.5" marker-end="url(#f)"/>
<rect x="469" y="184" width="124" height="16" rx="3" fill="#FFFFFF" opacity="0.94"/>
<text x="531" y="196" font-size="10.5" fill="#5A5A5A" text-anchor="middle">merge con aprobacion</text>
<path d="M 825,381 L 767,381 L 767,256 L 1075,256" fill="none" stroke="#5A5A5A" stroke-width="1.5" stroke-dasharray="7 5" marker-end="url(#f)"/>
<rect x="730" y="310" width="74" height="16" rx="3" fill="#FFFFFF" opacity="0.94"/>
<text x="767" y="322" font-size="10.5" fill="#5A5A5A" text-anchor="middle">aprendizaje</text>
<path d="M 75,256 L 45,256 L 45,131 L 575,131" fill="none" stroke="#5A5A5A" stroke-width="1.5" stroke-dasharray="7 5" marker-end="url(#f)"/>
<rect x="19" y="184" width="51" height="16" rx="3" fill="#FFFFFF" opacity="0.94"/>
<text x="45" y="196" font-size="10.5" fill="#5A5A5A" text-anchor="middle">emplaza</text>
<path d="M 75,506 L 31,506 L 31,131 L 575,131" fill="none" stroke="#C0504D" stroke-width="1.5" stroke-dasharray="7 5" marker-end="url(#fr)"/>
<rect x="4" y="310" width="62" height="16" rx="3" fill="#FFFFFF" opacity="0.94"/>
<text x="35" y="322" font-size="10.5" fill="#C0504D" text-anchor="middle">NO mergea</text>
<path d="M 875,506 L 1075,506" fill="none" stroke="#5A5A5A" stroke-width="1.5" stroke-dasharray="7 5" marker-end="url(#f)"/>
<rect x="933" y="497" width="85" height="16" rx="3" fill="#FFFFFF" opacity="0.94"/>
<text x="975" y="509" font-size="10.5" fill="#5A5A5A" text-anchor="middle">lo publicable</text>
<path d="M 75,631 L 45,631 L 45,381 L 575,381" fill="none" stroke="#5A5A5A" stroke-width="1.5" stroke-dasharray="7 5" marker-end="url(#f)"/>
<rect x="4" y="497" width="113" height="16" rx="3" fill="#FFFFFF" opacity="0.94"/>
<text x="60" y="509" font-size="10.5" fill="#5A5A5A" text-anchor="middle">rutea la ejecucion</text>
<path d="M 575,631 L 531,631 L 531,506 L 575,506" fill="none" stroke="#5A5A5A" stroke-width="1.5" stroke-dasharray="7 5" marker-end="url(#f)"/>
<rect x="469" y="560" width="124" height="16" rx="3" fill="#FFFFFF" opacity="0.94"/>
<text x="531" y="572" font-size="10.5" fill="#5A5A5A" text-anchor="middle">mide antes de entrar</text>
<rect x="575" y="100" width="240" height="62" rx="14" fill="#EDE7F6" stroke="#6A4FA3" stroke-width="1.6"/>
<text x="695" y="128" font-size="11.5" fill="#2E1A5C" font-weight="600" text-anchor="middle">01_VaultrumCore — el criterio base:</text>
<text x="695" y="142" font-size="11.5" fill="#2E1A5C" font-weight="600" text-anchor="middle">fuente y retorno</text>
<rect x="75" y="225" width="200" height="62" rx="3" fill="#FFFFFF" stroke="#3D3D3D" stroke-width="1.6"/>
<text x="175" y="253" font-size="11.5" fill="#1A1A1A" font-weight="600" text-anchor="middle">Arquitectura — la forma del</text>
<text x="175" y="267" font-size="11.5" fill="#1A1A1A" font-weight="600" text-anchor="middle">vault</text>
<rect x="575" y="225" width="220" height="62" rx="3" fill="#FFFFFF" stroke="#3D3D3D" stroke-width="1.6"/>
<text x="685" y="253" font-size="11.5" fill="#1A1A1A" font-weight="600" text-anchor="middle">Producción — TL + RQ, dueña de la</text>
<text x="685" y="267" font-size="11.5" fill="#1A1A1A" font-weight="600" text-anchor="middle">entrega</text>
<rect x="1075" y="225" width="200" height="62" rx="3" fill="#FFFFFF" stroke="#3D3D3D" stroke-width="1.6"/>
<text x="1175" y="253" font-size="11.5" fill="#1A1A1A" font-weight="600" text-anchor="middle">Conocimiento — qué vuelve al</text>
<text x="1175" y="267" font-size="11.5" fill="#1A1A1A" font-weight="600" text-anchor="middle">Core</text>
<rect x="325" y="350" width="230" height="62" rx="3" fill="#FFFFFF" stroke="#3D3D3D" stroke-width="1.6"/>
<text x="440" y="378" font-size="11.5" fill="#1A1A1A" font-weight="600" text-anchor="middle">Game Design · Level Design · UI/UX</text>
<text x="440" y="392" font-size="11.5" fill="#1A1A1A" font-weight="600" text-anchor="middle">→ GDS · LDS · UXS</text>
<rect x="575" y="350" width="200" height="62" rx="3" fill="#FFFFFF" stroke="#3D3D3D" stroke-width="1.6"/>
<text x="675" y="385" font-size="11.5" fill="#1A1A1A" font-weight="600" text-anchor="middle">Programación — SOL + EJ</text>
<rect x="825" y="350" width="200" height="62" rx="3" fill="#FFFFFF" stroke="#3D3D3D" stroke-width="1.6"/>
<text x="925" y="385" font-size="11.5" fill="#1A1A1A" font-weight="600" text-anchor="middle">Calidad — QA</text>
<rect x="575" y="475" width="300" height="62" rx="3" fill="#FFF4E0" stroke="#C98A2B" stroke-width="1.6"/>
<text x="725" y="503" font-size="11.5" fill="#5C3B08" font-weight="400" text-anchor="middle">06_Proyectos — el trabajo real: TL → RQ → GDS</text>
<text x="725" y="517" font-size="11.5" fill="#5C3B08" font-weight="400" text-anchor="middle">→ SOL → EJ → QA → VE</text>
<rect x="75" y="475" width="200" height="62" rx="14" fill="#EDE7F6" stroke="#6A4FA3" stroke-width="1.6"/>
<text x="175" y="503" font-size="11.5" fill="#2E1A5C" font-weight="600" text-anchor="middle">05_Escuela — Biblioteca +</text>
<text x="175" y="517" font-size="11.5" fill="#2E1A5C" font-weight="600" text-anchor="middle">misiones EST</text>
<rect x="1075" y="475" width="200" height="62" rx="14" fill="#EDE7F6" stroke="#6A4FA3" stroke-width="1.6"/>
<text x="1175" y="510" font-size="11.5" fill="#2E1A5C" font-weight="600" text-anchor="middle">03_Comunidad — PUB + Archivo</text>
<rect x="75" y="600" width="200" height="62" rx="14" fill="#EDE7F6" stroke="#6A4FA3" stroke-width="1.6"/>
<text x="175" y="628" font-size="11.5" fill="#2E1A5C" font-weight="600" text-anchor="middle">04_IA Operativa — AiCare +</text>
<text x="175" y="642" font-size="11.5" fill="#2E1A5C" font-weight="600" text-anchor="middle">Despacho</text>
<rect x="575" y="600" width="300" height="62" rx="14" fill="#FDE9E9" stroke="#C0504D" stroke-width="1.6"/>
<text x="725" y="628" font-size="11.5" fill="#5C1A18" font-weight="600" text-anchor="middle">Gate de cierre en cada commit: grafo · grafo</text>
<text x="725" y="642" font-size="11.5" fill="#5C1A18" font-weight="600" text-anchor="middle">--paquete · gemelos · documentacion</text>
<rect x="1075" y="600" width="200" height="62" rx="3" fill="#F2F2F2" stroke="#9A9A9A" stroke-width="1.6" stroke-dasharray="6 4"/>
<text x="1175" y="628" font-size="11.5" fill="#4A4A4A" font-weight="400" text-anchor="middle">CLAUDE.md · AGENTS.md — las</text>
<text x="1175" y="642" font-size="11.5" fill="#4A4A4A" font-weight="400" text-anchor="middle">dos puertas, idénticas</text>
</svg>